<?xml version="1.0" standalone="no"?>
<!DOCTYPE svg PUBLIC "-//W3C//DTD SVG 20010904//EN"
 "http://www.w3.org/TR/2001/REC-SVG-20010904/DTD/svg10.dtd">
<svg version="1.0" xmlns="http://www.w3.org/2000/svg"
 width="500.000000pt" height="500.000000pt" viewBox="0 0 500.000000 500.000000"
 preserveAspectRatio="xMidYMid meet">
<metadata>
Created by potrace 1.16, written by Peter Selinger 2001-2019
</metadata>
<g transform="translate(0.000000,500.000000) scale(0.100000,-0.100000)"
fill="#000000" stroke="none">
<path d="M1154 2793 c-31 -6 -47 -48 -34 -88 9 -27 18 -34 58 -44 26 -7 55
-12 65 -12 9 0 17 -6 17 -14 0 -7 3 -21 6 -30 6 -15 4 -15 -14 -4 -18 11 -24
8 -58 -27 -34 -34 -64 -78 -64 -91 0 -2 7 2 15 11 8 8 15 22 15 30 0 14 12 20
33 17 4 0 7 6 7 14 0 29 18 14 27 -22 5 -21 15 -37 22 -35 16 3 26 -27 12 -41
-12 -12 -36 4 -36 26 0 7 -9 12 -20 12 -13 0 -20 -7 -20 -20 0 -14 6 -19 21
-18 17 2 21 -3 20 -25 -1 -32 -36 -46 -36 -13 0 12 -12 25 -31 35 -21 10 -29
11 -26 3 2 -7 13 -13 25 -15 14 -2 22 -11 22 -22 0 -10 5 -22 10 -25 17 -11
50 5 50 24 0 10 11 24 25 31 25 13 29 24 25 68 -1 12 3 22 9 22 17 0 22 -17
12 -43 -7 -19 -6 -28 5 -37 7 -7 14 -19 14 -26 0 -17 5 -17 31 -4 14 8 19 7
19 -2 0 -10 3 -10 9 1 11 17 45 7 38 -12 -2 -6 -13 -12 -25 -11 -12 0 -19 -3
-16 -8 3 -4 14 -8 26 -8 14 0 18 -5 14 -16 -3 -9 -6 -19 -6 -24 0 -4 -9 -10
-20 -13 -16 -4 -20 -2 -15 12 7 23 -15 41 -46 40 -13 -1 -32 2 -41 6 -13 5
-22 -1 -35 -24 -10 -17 -26 -31 -36 -31 -15 0 -18 -7 -15 -32 2 -25 8 -33 22
-33 14 0 41 27 41 41 0 1 15 5 34 9 l34 7 -21 -23 c-12 -12 -25 -20 -28 -16
-11 10 -34 -20 -34 -45 0 -39 13 -48 58 -44 51 6 62 12 62 37 0 10 1 20 3 20
1 1 52 4 112 8 l110 6 3 73 c2 59 0 72 -12 72 -9 0 -20 -9 -26 -19 -16 -31
-12 -35 10 -10 l19 24 0 -55 c-1 -30 -3 -47 -6 -37 -2 9 -9 15 -14 12 -5 -4
-9 0 -10 7 0 7 -4 4 -8 -7 -5 -12 -4 -23 3 -27 6 -4 4 -9 -7 -14 -12 -4 -23 0
-33 12 -14 18 -14 18 -8 -1 5 -15 4 -17 -5 -9 -6 6 -9 18 -5 27 7 19 24 23 24
6 0 -5 5 -7 10 -4 6 3 10 16 10 28 0 18 -2 19 -10 7 -8 -13 -10 -12 -10 3 0 9
4 17 9 17 18 0 23 41 8 58 -9 10 -18 30 -21 46 -3 16 -13 37 -23 45 -16 15
-16 15 -4 -1 12 -16 11 -18 -5 -18 -17 0 -17 -1 2 -15 11 -8 14 -14 6 -15 -7
0 -17 -10 -22 -22 l-9 -23 -7 23 c-3 12 -13 22 -20 22 -8 0 -14 5 -14 10 0 6
4 10 9 10 4 0 6 11 4 24 -4 21 -2 24 17 19 20 -5 21 -3 15 31 -5 23 -3 36 3
36 6 0 12 -12 14 -27 2 -20 9 -29 26 -31 17 -3 21 -8 17 -22 -3 -10 -1 -21 4
-25 6 -3 9 0 6 7 -3 7 -1 19 4 27 8 12 12 12 25 2 13 -11 16 -11 16 2 0 20
-24 28 -41 14 -11 -10 -11 -9 0 5 13 18 7 58 -10 58 -5 0 -9 7 -9 16 0 12 6
10 21 -10 23 -29 44 -34 53 -10 11 28 6 91 -8 103 -7 6 -42 10 -80 9 -36 -1
-71 3 -77 9 -14 14 -59 4 -59 -13 0 -17 36 -19 44 -1 3 6 4 -1 3 -18 -1 -22
-8 -31 -27 -36 -22 -6 -23 -7 -4 -8 15 -1 23 -9 26 -26 3 -14 1 -25 -5 -25 -5
0 -5 -5 2 -13 12 -15 -3 -37 -26 -37 -7 0 -12 -3 -12 -7 3 -21 -3 -20 -27 2
-15 14 -33 25 -40 25 -8 0 -14 5 -14 10 0 17 28 23 60 12 21 -8 32 -8 36 0 4
7 2 8 -4 4 -7 -4 -12 -3 -12 2 0 6 8 13 17 17 16 6 15 8 -7 26 -14 10 -36 18
-50 17 -60 -3 -65 0 -67 43 -2 70 -42 97 -119 82z"/>
<path d="M3293 2748 c-5 -7 -15 -31 -21 -53 -7 -22 -26 -83 -43 -135 -16 -52
-31 -109 -32 -126 -1 -18 -5 -30 -9 -28 -10 6 -41 -103 -34 -121 3 -9 2 -13
-4 -10 -9 6 -27 -42 -18 -50 7 -7 115 -8 126 -1 7 4 12 15 12 24 0 9 5 34 11
55 l10 37 75 0 c51 0 76 -4 78 -12 3 -7 10 -34 17 -60 8 -29 19 -49 29 -49 37
-4 111 -1 116 4 4 4 -12 61 -70 240 -7 20 -16 34 -21 30 -4 -5 -5 -3 -2 3 4 7
-4 47 -17 90 -13 44 -30 99 -38 124 l-13 45 -71 3 c-49 2 -74 -1 -81 -10z"/>
<path d="M3660 2490 l0 -270 65 0 65 0 -2 268 -3 267 -62 3 -63 3 0 -271z"/>
<path d="M2961 2336 c-25 -27 -27 -93 -3 -88 8 1 11 -2 7 -7 -7 -13 27 -31 60
-31 31 0 75 41 75 71 0 11 -9 34 -21 50 -27 38 -84 41 -118 5z"/>
<path d="M1128 2304 c-55 -67 -52 -99 11 -152 27 -23 54 -42 58 -42 13 0 63
54 63 67 0 6 -12 26 -27 44 -18 21 -29 48 -33 78 -7 61 -26 63 -72 5z"/>
</g>
</svg>
